<?xml version="1.0" standalone="no"?>
<!DOCTYPE svg PUBLIC "-//W3C//DTD SVG 20010904//EN"
 "http://www.w3.org/TR/2001/REC-SVG-20010904/DTD/svg10.dtd">
<svg version="1.0" xmlns="http://www.w3.org/2000/svg"
 width="1700.000000pt" height="1700.000000pt" viewBox="0 0 1700.000000 1700.000000"
 preserveAspectRatio="xMidYMid meet">
<metadata>
Created by potrace 1.11, written by Peter Selinger 2001-2013
</metadata>
<g transform="translate(0.000000,1700.000000) scale(0.100000,-0.100000)"
fill="#000000" stroke="none">
<path d="M7707 15194 c-1 -1 -60 -4 -132 -8 -210 -10 -338 -22 -520 -46 -38
-6 -88 -12 -110 -15 -45 -5 -233 -37 -295 -50 -31 -6 -66 -13 -105 -20 -63
-12 -433 -105 -495 -125 -36 -11 -74 -23 -85 -25 -11 -2 -20 -4 -20 -5 0 -1
-7 -3 -15 -5 -42 -9 -334 -114 -477 -171 -189 -75 -520 -225 -603 -274 -8 -5
-82 -46 -165 -91 -393 -215 -749 -462 -1115 -775 -254 -216 -546 -510 -750
-753 -25 -29 -49 -59 -55 -65 -187 -211 -507 -679 -685 -1001 -18 -33 -42 -76
-53 -95 -92 -164 -271 -554 -344 -750 -12 -30 -29 -75 -38 -100 -107 -282
-236 -738 -280 -992 -4 -18 -15 -78 -25 -133 -23 -125 -31 -172 -36 -210 -4
-31 -13 -99 -20 -150 -5 -38 -11 -92 -19 -180 -3 -38 -8 -88 -10 -110 -24
-268 -24 -890 0 -1080 2 -16 7 -68 10 -115 4 -47 8 -92 10 -100 1 -8 6 -37 9
-65 4 -27 9 -66 11 -85 3 -19 8 -55 11 -80 6 -54 13 -96 19 -130 3 -14 7 -36
10 -50 3 -14 7 -36 10 -50 2 -14 7 -40 10 -58 3 -18 12 -65 20 -104 9 -39 12
-75 8 -79 -8 -6 -46 -28 -213 -116 -41 -22 -93 -50 -115 -63 -22 -12 -62 -35
-90 -50 -164 -90 -437 -252 -569 -338 -79 -51 -80 -48 39 -92 l70 -26 190 104
c246 135 697 361 726 364 19 3 24 -5 39 -62 61 -229 204 -657 260 -775 5 -11
27 -63 49 -115 148 -355 413 -841 616 -1130 17 -25 54 -76 80 -115 55 -78 193
-261 252 -332 180 -220 273 -323 480 -532 79 -79 143 -145 143 -147 0 -4 -29
-31 -155 -149 -97 -90 -234 -217 -260 -240 -16 -16 -91 -85 -165 -154 -74 -69
-148 -139 -165 -154 -167 -157 -243 -228 -278 -259 -22 -21 -42 -45 -43 -53
-1 -8 -5 -49 -9 -91 -3 -41 -8 -84 -10 -95 -2 -10 -1 -19 2 -19 5 0 124 103
179 155 12 11 52 47 90 81 211 186 283 250 319 283 22 20 71 63 110 96 38 33
79 69 91 80 11 11 47 43 80 70 32 28 81 70 109 95 28 25 77 68 109 95 76 64
76 65 113 99 l32 28 143 -119 c135 -113 368 -292 468 -359 359 -242 517 -336
825 -491 446 -224 899 -392 1390 -514 125 -31 434 -95 495 -103 19 -2 46 -7
60 -10 14 -3 45 -8 70 -11 25 -3 56 -7 70 -9 27 -5 179 -22 275 -31 33 -3 74
-8 90 -10 177 -23 896 -24 1090 -1 17 2 66 7 110 11 81 7 122 11 185 20 19 3
51 7 70 9 109 14 136 18 150 21 8 2 31 7 50 10 19 3 58 10 85 15 28 5 64 12
80 15 56 9 129 24 240 50 61 14 118 28 127 30 52 11 354 98 418 120 41 14 80
27 85 28 25 7 123 41 150 52 17 7 91 36 165 65 631 245 1307 644 1805 1065 33
28 71 59 84 70 142 117 485 450 626 609 39 44 77 86 85 95 8 9 53 63 100 121
47 58 88 107 91 110 19 16 231 307 316 435 97 144 243 380 243 391 0 3 9 19
20 34 20 28 191 353 211 400 6 14 21 48 34 75 124 264 321 785 351 930 1 6 11
42 22 80 12 39 38 138 58 220 37 156 41 171 50 219 2 16 6 32 8 35 2 3 7 29
10 56 4 28 9 57 11 65 2 8 6 27 9 43 18 104 26 147 30 187 4 25 8 56 10 70 9
50 35 288 41 370 29 395 25 873 -10 1195 -3 28 -8 75 -11 105 -3 30 -7 66 -9
80 -2 14 -7 48 -10 75 -3 28 -11 77 -17 110 -5 33 -12 74 -14 90 -2 17 -13 80
-25 140 -11 61 -23 124 -26 140 -3 17 -31 134 -63 261 -65 256 -176 599 -268
829 -34 82 -58 154 -54 161 4 6 30 30 57 54 222 190 702 656 915 889 52 57
100 108 106 115 10 11 147 167 205 234 246 285 572 735 769 1061 112 186 350
639 350 666 0 3 14 35 31 72 35 76 149 369 149 385 0 6 -17 -11 -37 -38 -20
-27 -39 -51 -43 -54 -3 -3 -25 -30 -50 -60 -25 -30 -47 -57 -50 -60 -3 -3 -30
-34 -60 -70 -335 -396 -788 -841 -1210 -1190 -74 -62 -144 -119 -155 -128
-289 -239 -917 -679 -1279 -895 -11 -7 -51 -31 -88 -54 -38 -24 -72 -43 -76
-43 -4 0 -16 15 -28 33 -89 137 -219 328 -278 407 -77 104 -262 339 -280 355
-6 6 -24 26 -40 45 -96 118 -374 406 -541 561 -178 165 -617 519 -644 519 -5
0 -11 4 -13 8 -4 11 -239 169 -378 254 -343 211 -786 428 -1143 560 -259 96
-689 225 -847 255 -13 2 -60 12 -105 23 -44 10 -100 22 -125 26 -25 4 -47 8
-50 9 -3 1 -30 5 -60 10 -30 5 -57 9 -60 10 -5 1 -76 12 -139 22 -18 2 -42 6
-52 8 -10 2 -49 7 -86 10 -37 4 -76 9 -85 10 -9 2 -52 7 -95 10 -43 4 -91 8
-108 10 -110 12 -746 29 -758 19z"/>
</g>
</svg>
